<svg xmlns="http://www.w3.org/2000/svg" width="500" height="500.413" viewBox="0 0 496.278 496.688">
  <defs>
    <style>
      .cls-1 {
        fill: #fff;
        fill-rule: evenodd;
      }
    </style>
  </defs>
  <path id="_4_copy" data-name="4 copy" class="cls-1" d="M249.5,497.833L9.853,373.666V125.334L249.5,1.167,489.147,125.334V373.666ZM169.77,340.644V247.726h16.311q31.046,0,56.83-9.8t37.447-27.812q11.664-18.015,11.663-42.034,0-20.541-8.825-34.292t-25.321-20.385q-16.5-6.636-54.439-6.637H132.321V340.644H169.77Zm0-209.065h22.349q27.888,0,38.977,5.136t16.111,13.432q5.022,8.3,5.024,20.306,0,22.125-15.765,37.135T184.5,222.6H169.77V131.579ZM301.79,413.855l22.716-67.882h40.108l9.779-28.61H334.079l55.717-166.5H347.823L167.2,312.921l-11.3,33.052H287.684l-23.192,67.882h37.3Zm37.364-218.536L297.459,317.363h-96.2Z" transform="translate(-1.361 -1.156)"/>
</svg>
